{"asset":{"version":"2.0","generator":"babylon.js glTF exporter for maya 2018 v1.2.16","copyright":"2017 (c) BabylonJS"},"extensionsUsed":["KHR_lights"],"scene":0,"scenes":[{"nodes":[0],"extensions":{"KHR_lights":{"light":0}}}],"nodes":[{"mesh":0,"translation":[0.0,0.0,0.0],"rotation":[0.0,0.0,0.0,1.0],"scale":[1.0,1.0,1.0],"name":"logo"}],"meshes":[{"primitives":[{"attributes":{"POSITION":1,"NORMAL":2,"TANGENT":3},"indices":0,"mode":4,"material":0},{"attributes":{"POSITION":5,"NORMAL":6,"TANGENT":7},"indices":4,"mode":4,"material":1}],"name":"logo"}],"accessors":[{"bufferView":0,"componentType":5123,"count":6708,"type":"SCALAR","name":"accessorIndices"},{"bufferView":1,"componentType":5126,"count":6708,"max":[39.01236,6.713889,1.013],"min":[7.980139,3.670417,0.0],"type":"VEC3","name":"accessorPositions"},{"bufferView":1,"byteOffset":80496,"componentType":5126,"count":6708,"type":"VEC3","name":"accessorNormals"},{"bufferView":2,"componentType":5126,"count":6708,"type":"VEC4","name":"accessorTangents"},{"bufferView":0,"byteOffset":13416,"componentType":5123,"count":1236,"type":"SCALAR","name":"accessorIndices"},{"bufferView":1,"byteOffset":160992,"componentType":5126,"count":1236,"max":[6.166007,7.627099,1.014004],"min":[0.280411,2.245139,0.014],"type":"VEC3","name":"accessorPositions"},{"bufferView":1,"byteOffset":175824,"componentType":5126,"count":1236,"type":"VEC3","name":"accessorNormals"},{"bufferView":2,"byteOffset":107328,"componentType":5126,"count":1236,"type":"VEC4","name":"accessorTangents"}],"bufferViews":[{"buffer":0,"byteLength":15888,"name":"bufferViewScalar"},{"buffer":0,"byteOffset":15888,"byteLength":190656,"byteStride":12,"name":"bufferViewFloatVec3"},{"buffer":0,"byteOffset":206544,"byteLength":127104,"byteStride":16,"name":"bufferViewFloatVec4"}],"buffers":[{"uri":"logo.bin","byteLength":333648}],"materials":[{"pbrMetallicRoughness":{"baseColorFactor":[0.3541667,0.3541667,0.3541667,1.0],"metallicFactor":0.0,"roughnessFactor":0.9},"emissiveFactor":[0.0,0.0,0.0],"alphaMode":"OPAQUE","name":"lambert2SG1"},{"pbrMetallicRoughness":{"baseColorFactor":[1.0,0.305745065,0.305745065,1.0],"metallicFactor":0.630135357,"roughnessFactor":0.3},"emissiveFactor":[0.0,0.0,0.0],"alphaMode":"OPAQUE","name":"blinn1"}],"extensions":{"KHR_lights":{"lights":[{"color":[1.0,1.0,1.0],"intensity":1.0,"type":"ambient"}]}}}