{"asset":{"version":"2.0","generator":"babylon.js glTF exporter for maya 2018 v20190719.6"},"scene":0,"scenes":[{"nodes":[0,4],"extensions":{}}],"nodes":[{"children":[1,2,3],"translation":[0.0,0.0,0.0],"rotation":[0.0,0.0,0.0,1.0],"scale":[1.0,1.0,1.0],"name":"molecula_GRP"},{"mesh":0,"translation":[-3.0,0.0,0.0],"rotation":[0.0,0.0,0.0,1.0],"scale":[1.0,1.0,1.0],"name":"Hydrogen1"},{"mesh":1,"translation":[0.0,0.0,0.0],"rotation":[0.0,0.0,0.0,1.0],"scale":[1.0,1.0,1.0],"name":"Oxygen"},{"mesh":2,"translation":[3.0,0.0,0.0],"rotation":[0.0,0.0,0.0,1.0],"scale":[1.0,1.0,1.0],"name":"Hydrogen"},{"mesh":3,"translation":[0.0,0.0,0.0],"rotation":[0.0,0.0,0.0,1.0],"scale":[0.01,0.01,0.01],"name":"water"}],"meshes":[{"primitives":[{"attributes":{"POSITION":1,"NORMAL":2,"TANGENT":3,"TEXCOORD_0":4},"indices":0,"mode":4,"material":0}],"name":"Hydrogen1"},{"primitives":[{"attributes":{"POSITION":6,"NORMAL":7,"TANGENT":8,"TEXCOORD_0":9},"indices":5,"mode":4,"material":1}],"name":"Oxygen"},{"primitives":[{"attributes":{"POSITION":11,"NORMAL":12,"TANGENT":13,"TEXCOORD_0":14},"indices":10,"mode":4,"material":0}],"name":"Hydrogen"},{"primitives":[{"attributes":{"POSITION":16,"NORMAL":17,"TANGENT":18,"TEXCOORD_0":19},"indices":15,"mode":4,"material":1}],"name":"water"}],"accessors":[{"bufferView":0,"componentType":5123,"count":540,"type":"SCALAR","name":"accessorIndices"},{"bufferView":1,"componentType":5126,"count":540,"max":[0.982247,0.9794321,1.0],"min":[-0.982247,-0.9794321,-1.0],"type":"VEC3","name":"accessorPositions"},{"bufferView":1,"byteOffset":6480,"componentType":5126,"count":540,"type":"VEC3","name":"accessorNormals"},{"bufferView":2,"componentType":5126,"count":540,"type":"VEC4","name":"accessorTangents"},{"bufferView":3,"componentType":5126,"count":540,"type":"VEC2","name":"accessorUVs"},{"bufferView":0,"byteOffset":1080,"componentType":5123,"count":540,"type":"SCALAR","name":"accessorIndices"},{"bufferView":1,"byteOffset":12960,"componentType":5126,"count":540,"max":[1.964494,1.95886421,2.0],"min":[-1.964494,-1.95886421,-2.0],"type":"VEC3","name":"accessorPositions"},{"bufferView":1,"byteOffset":19440,"componentType":5126,"count":540,"type":"VEC3","name":"accessorNormals"},{"bufferView":2,"byteOffset":8640,"componentType":5126,"count":540,"type":"VEC4","name":"accessorTangents"},{"bufferView":3,"byteOffset":4320,"componentType":5126,"count":540,"type":"VEC2","name":"accessorUVs"},{"bufferView":0,"byteOffset":2160,"componentType":5123,"count":540,"type":"SCALAR","name":"accessorIndices"},{"bufferView":1,"byteOffset":25920,"componentType":5126,"count":540,"max":[0.982247,0.9794321,1.0],"min":[-0.982247,-0.9794321,-1.0],"type":"VEC3","name":"accessorPositions"},{"bufferView":1,"byteOffset":32400,"componentType":5126,"count":540,"type":"VEC3","name":"accessorNormals"},{"bufferView":2,"byteOffset":17280,"componentType":5126,"count":540,"type":"VEC4","name":"accessorTangents"},{"bufferView":3,"byteOffset":8640,"componentType":5126,"count":540,"type":"VEC2","name":"accessorUVs"},{"bufferView":0,"byteOffset":3240,"componentType":5123,"count":540,"type":"SCALAR","name":"accessorIndices"},{"bufferView":1,"byteOffset":38880,"componentType":5126,"count":540,"max":[4.267153,2.194356,3.157971],"min":[-4.267153,-2.194356,-3.157971],"type":"VEC3","name":"accessorPositions"},{"bufferView":1,"byteOffset":45360,"componentType":5126,"count":540,"type":"VEC3","name":"accessorNormals"},{"bufferView":2,"byteOffset":25920,"componentType":5126,"count":540,"type":"VEC4","name":"accessorTangents"},{"bufferView":3,"byteOffset":12960,"componentType":5126,"count":540,"type":"VEC2","name":"accessorUVs"},{"bufferView":4,"componentType":5126,"count":60,"max":[1.9666667],"min":[0.0],"type":"SCALAR","name":"accessorAnimationInput"},{"bufferView":5,"componentType":5126,"count":60,"type":"VEC4","name":"accessorAnimationRotations"},{"bufferView":4,"byteOffset":240,"componentType":5126,"count":2,"max":[1.9666667],"min":[0.0],"type":"SCALAR","name":"accessorAnimationInput"},{"bufferView":6,"componentType":5126,"count":2,"type":"VEC3","name":"accessorAnimationPositions"},{"bufferView":4,"byteOffset":248,"componentType":5126,"count":2,"max":[1.9666667],"min":[0.0],"type":"SCALAR","name":"accessorAnimationInput"},{"bufferView":6,"byteOffset":24,"componentType":5126,"count":2,"type":"VEC3","name":"accessorAnimationPositions"},{"bufferView":4,"byteOffset":256,"componentType":5126,"count":2,"max":[1.9666667],"min":[0.0],"type":"SCALAR","name":"accessorAnimationInput"},{"bufferView":6,"byteOffset":48,"componentType":5126,"count":2,"type":"VEC3","name":"accessorAnimationScales"},{"bufferView":4,"byteOffset":264,"componentType":5126,"count":2,"max":[2.0],"min":[0.0],"type":"SCALAR","name":"accessorAnimationInput"},{"bufferView":5,"byteOffset":960,"componentType":5126,"count":2,"type":"VEC4","name":"accessorAnimationRotations"},{"bufferView":4,"byteOffset":272,"componentType":5126,"count":2,"max":[2.0],"min":[0.0],"type":"SCALAR","name":"accessorAnimationInput"},{"bufferView":6,"byteOffset":72,"componentType":5126,"count":2,"type":"VEC3","name":"accessorAnimationPositions"},{"bufferView":4,"byteOffset":280,"componentType":5126,"count":2,"max":[2.0],"min":[0.0],"type":"SCALAR","name":"accessorAnimationInput"},{"bufferView":6,"byteOffset":96,"componentType":5126,"count":2,"type":"VEC3","name":"accessorAnimationPositions"},{"bufferView":4,"byteOffset":288,"componentType":5126,"count":61,"max":[2.0],"min":[0.0],"type":"SCALAR","name":"accessorAnimationInput"},{"bufferView":6,"byteOffset":120,"componentType":5126,"count":61,"type":"VEC3","name":"accessorAnimationScales"}],"bufferViews":[{"buffer":0,"byteLength":4320,"name":"bufferViewScalar"},{"buffer":0,"byteOffset":4320,"byteLength":51840,"byteStride":12,"name":"bufferViewFloatVec3"},{"buffer":0,"byteOffset":56160,"byteLength":34560,"byteStride":16,"name":"bufferViewFloatVec4"},{"buffer":0,"byteOffset":90720,"byteLength":17280,"byteStride":8,"name":"bufferViewFloatVec2"},{"buffer":0,"byteOffset":108000,"byteLength":532,"name":"bufferViewAnimationFloatScalar"},{"buffer":0,"byteOffset":108532,"byteLength":992,"name":"bufferViewAnimationFloatVec4"},{"buffer":0,"byteOffset":109524,"byteLength":852,"name":"bufferViewAnimationFloatVec3"}],"buffers":[{"uri":"water.bin","byteLength":110376}],"materials":[{"pbrMetallicRoughness":{"baseColorFactor":[0.25,0.0,0.0,1.0],"metallicFactor":0.0,"roughnessFactor":0.450053632},"emissiveFactor":[0.0,0.0,0.0],"alphaMode":"OPAQUE","name":"H_mat"},{"pbrMetallicRoughness":{"baseColorFactor":[0.0,0.105770826,0.25,1.0],"metallicFactor":0.0,"roughnessFactor":0.450053632},"emissiveFactor":[0.0,0.0,0.0],"alphaMode":"OPAQUE","name":"O_mat"}],"animations":[{"channels":[{"sampler":0,"target":{"node":0,"path":"rotation"}},{"sampler":1,"target":{"node":1,"path":"translation"}},{"sampler":2,"target":{"node":3,"path":"translation"}},{"sampler":3,"target":{"node":4,"path":"scale"}}],"samplers":[{"input":20,"interpolation":"LINEAR","output":21},{"input":22,"interpolation":"LINEAR","output":23},{"input":24,"interpolation":"LINEAR","output":25},{"input":26,"interpolation":"LINEAR","output":27}],"name":"molecula"},{"channels":[{"sampler":0,"target":{"node":0,"path":"rotation"}},{"sampler":1,"target":{"node":1,"path":"translation"}},{"sampler":2,"target":{"node":3,"path":"translation"}},{"sampler":3,"target":{"node":4,"path":"scale"}}],"samplers":[{"input":28,"interpolation":"LINEAR","output":29},{"input":30,"interpolation":"LINEAR","output":31},{"input":32,"interpolation":"LINEAR","output":33},{"input":34,"interpolation":"LINEAR","output":35}],"name":"water"}]}